<svg xmlns="http://www.w3.org/2000/svg" viewBox="0 0 32 32">
  <defs>
    <linearGradient id="toothGrad" x1="0%" y1="0%" x2="100%" y2="100%">
      <stop offset="0%" style="stop-color:#5EEAD4;stop-opacity:1" />
      <stop offset="50%" style="stop-color:#2DD4BF;stop-opacity:1" />
      <stop offset="100%" style="stop-color:#0F766E;stop-opacity:1" />
    </linearGradient>
  </defs>
  <circle cx="16" cy="16" r="16" fill="#0F766E"/>
  <path d="M16 6c4 0 7 3 7 7v4c0 3-2 6-4 8l-3 4-3-4c-2-2-4-5-4-8v-4c0-4 3-7 7-7z" 
        fill="url(#toothGrad)" 
        stroke="#ffffff" 
        stroke-width="0.5"/>
  <path d="M16 9c2.5 0 4.5 2 4.5 4.5v2.5c0 1.5-1 3-2 4l-2.5 3-2.5-3c-1-1-2-2.5-2-4v-2.5c0-2.5 2-4.5 4.5-4.5z" 
        fill="white" 
        opacity="0.8"/>
</svg>